<svg xmlns="http://www.w3.org/2000/svg" xmlns:xlink="http://www.w3.org/1999/xlink" viewBox="0 0 354.46 354.46"><defs><style>.cls-1{fill:#fff;stroke-width:5px;}.cls-1,.cls-12,.cls-13,.cls-14,.cls-3{stroke:#000;stroke-miterlimit:10;}.cls-2{fill:url(#radial-gradient);}.cls-3{fill:none;stroke-width:4px;}.cls-4{fill:url(#radial-gradient-2);}.cls-5{fill:url(#radial-gradient-3);}.cls-6{fill:url(#linear-gradient);}.cls-7,.cls-8{opacity:0.5;}.cls-7{fill:url(#linear-gradient-2);}.cls-8{fill:url(#linear-gradient-3);}.cls-10,.cls-9{opacity:0.4;}.cls-9{fill:url(#linear-gradient-4);}.cls-10{fill:url(#linear-gradient-5);}.cls-11{fill:url(#linear-gradient-6);}.cls-12{fill:#f7941d;}.cls-12,.cls-13,.cls-14{stroke-width:0.75px;}.cls-13{fill:#27aae1;}.cls-14{fill:#8dc63f;}.cls-15{fill:#b2a16b;}.cls-16{fill:#231f20;}</style><radialGradient id="radial-gradient" cx="177.36" cy="176.13" r="122.35" gradientTransform="translate(176.49 -73.83) rotate(45)" gradientUnits="userSpaceOnUse"><stop offset="0" stop-color="#fff"/><stop offset="0.05" stop-color="#e7f8fe"/><stop offset="0.16" stop-color="#a9e5fa"/><stop offset="0.32" stop-color="#49c8f5"/><stop offset="0.44" stop-color="#47c4f2"/><stop offset="0.57" stop-color="#40b7e9"/><stop offset="0.7" stop-color="#35a2db"/><stop offset="0.83" stop-color="#2585c7"/><stop offset="0.83" stop-color="#2484c6"/><stop offset="0.87" stop-color="#2482c3"/><stop offset="0.9" stop-color="#247dba"/><stop offset="0.92" stop-color="#2473aa"/><stop offset="0.94" stop-color="#246694"/><stop offset="0.96" stop-color="#245477"/><stop offset="0.98" stop-color="#233f54"/><stop offset="1" stop-color="#23262b"/><stop offset="1" stop-color="#231f20"/></radialGradient><radialGradient id="radial-gradient-2" cx="176.06" cy="48.49" r="224.24" gradientUnits="userSpaceOnUse"><stop offset="0.34" stop-color="#fff"/><stop offset="0.41" stop-color="#f0f0f0"/><stop offset="0.55" stop-color="#c9c8c8"/><stop offset="0.73" stop-color="#8a8888"/><stop offset="0.96" stop-color="#343031"/><stop offset="1" stop-color="#231f20"/></radialGradient><radialGradient id="radial-gradient-3" cx="176.06" cy="48.49" fx="285.65109506344527" fy="-172.8558576600821" r="246.99" gradientUnits="userSpaceOnUse"><stop offset="0.51" stop-color="#fff"/><stop offset="0.56" stop-color="#f1f1f1" stop-opacity="0.97"/><stop offset="0.66" stop-color="#cdcccc" stop-opacity="0.89"/><stop offset="0.79" stop-color="#929090" stop-opacity="0.75"/><stop offset="0.94" stop-color="#413e3f" stop-opacity="0.57"/><stop offset="1" stop-color="#231f20" stop-opacity="0.5"/></radialGradient><linearGradient id="linear-gradient" x1="32.82" y1="176.12" x2="321.89" y2="176.12" gradientUnits="userSpaceOnUse"><stop offset="0" stop-color="#231f20"/><stop offset="0.5" stop-color="#fff"/><stop offset="1" stop-color="#231f20"/></linearGradient><linearGradient id="linear-gradient-2" x1="79.01" y1="248.49" x2="118.14" y2="180.4" gradientUnits="userSpaceOnUse"><stop offset="0" stop-color="#fff"/><stop offset="0.05" stop-color="#e7f8fe"/><stop offset="0.16" stop-color="#a9e5fa"/><stop offset="0.32" stop-color="#49c8f5"/><stop offset="0.44" stop-color="#47c4f2"/><stop offset="0.57" stop-color="#40b7e9"/><stop offset="0.7" stop-color="#35a2db"/><stop offset="0.83" stop-color="#2585c7"/><stop offset="0.83" stop-color="#2484c6"/></linearGradient><linearGradient id="linear-gradient-3" x1="30.97" y1="-36.85" x2="68.65" y2="-102.42" gradientTransform="matrix(1, 0, 0, 1, 43.84, 244.49)" xlink:href="#linear-gradient-2"/><linearGradient id="linear-gradient-4" x1="676.44" y1="590.76" x2="697.92" y2="511.87" gradientTransform="matrix(0.99, 0.78, -0.62, 0.79, -110.87, -876.48)" xlink:href="#linear-gradient-2"/><linearGradient id="linear-gradient-5" x1="212.29" y1="151.15" x2="296.67" y2="96.43" xlink:href="#linear-gradient-2"/><linearGradient id="linear-gradient-6" x1="180.42" y1="302.81" x2="176.51" y2="140.81" gradientUnits="userSpaceOnUse"><stop offset="0" stop-color="#fff"/><stop offset="0.95" stop-color="#231f20"/></linearGradient></defs><g id="Layer_2" data-name="Layer 2"><g id="Layer_1-2" data-name="Layer 1"><circle id="Outside_Boundary_Circle" data-name="Outside Boundary Circle" class="cls-1" cx="177.23" cy="177.23" r="174.73" transform="translate(-73.41 177.23) rotate(-45)"/><circle class="cls-2" cx="177.36" cy="176.13" r="122.35" transform="translate(-72.59 177) rotate(-45)"/><circle id="Middle" class="cls-3" cx="177.23" cy="177.23" r="135.98"/><path class="cls-4" d="M177.36,29.59A146.54,146.54,0,1,0,323.89,176.12,146.54,146.54,0,0,0,177.36,29.59Zm0,277.94A131.41,131.41,0,1,1,308.77,176.12,131.4,131.4,0,0,1,177.36,307.53Z"/><path class="cls-5" d="M177.36,29.59A146.54,146.54,0,1,0,323.89,176.12,146.54,146.54,0,0,0,177.36,29.59Zm0,277.94A131.41,131.41,0,1,1,308.77,176.12,131.4,131.4,0,0,1,177.36,307.53Z"/><path class="cls-6" d="M177.36,320.66c-79.7,0-144.54-64.84-144.54-144.54S97.66,31.59,177.36,31.59,321.89,96.43,321.89,176.12,257.06,320.66,177.36,320.66Zm0-277.94C103.8,42.72,44,102.56,44,176.12S103.8,309.53,177.36,309.53s133.41-59.84,133.41-133.41S250.92,42.72,177.36,42.72Z"/><path class="cls-7" d="M104.37,218.88c15.2,26.34,24.28,49.44,15.22,54.67s-28.74-11.87-43.94-38.2-20.18-51.93-11.12-57.16S89.16,192.55,104.37,218.88Z"/><ellipse class="cls-8" cx="87.12" cy="186.23" rx="17.72" ry="33.65" transform="translate(-44.29 28.1) rotate(-14.66)"/><path class="cls-9" d="M205.51,115.62c14.4-18.37,44.86-18.54,68-.38a68.15,68.15,0,0,1,5.38,4.71,144.18,144.18,0,0,0-28.42-29.11C219.6,66.62,186.12,57.75,175.72,71c-8.78,11.22,1.73,34.66,23.86,56.27A34.16,34.16,0,0,1,205.51,115.62Z"/><ellipse class="cls-10" cx="239.84" cy="133.28" rx="41.09" ry="39.21"/><path class="cls-11" d="M177.36,44.72a131.41,131.41,0,1,0,131.41,131.4A131.4,131.4,0,0,0,177.36,44.72Zm0,253.76A122.36,122.36,0,1,1,299.71,176.12,122.36,122.36,0,0,1,177.36,298.48Z"/><path id="Color1" class="cls-12" d="M22.72,259.53c-3.29,7.76,9.16-21.31,29.82-26.77,0,0-28.15-56.66,6.11-123.45,0,0-18.33-9.37-27.35-26.64C-1.72,135.59-7.5,195.18,22.72,259.53Z"/><path id="Color1-2" data-name="Color1" class="cls-13" d="M322.78,80.07s-1.15,17.16-28,30.32c0,0,37.94,49.09,5.95,124.15,0,0,21,11.76,26.06,32C362.84,211.44,359.45,135.32,322.78,80.07Z"/><path id="Color1-3" data-name="Color1" class="cls-14" d="M97,22.05s22.74,9.83,24.77,29.76c0,0,60.31-24.44,111.06,1.13,0,0,15.61-28.75,27.41-30.23C216-2.94,144.33-6.07,97,22.05Z"/><path class="cls-15" d="M277,44h6.35a20.35,20.35,0,0,1-6.36.47C277,44.35,277,44.2,277,44Z"/><path class="cls-15" d="M258.82,39.83h1.62c-.22.42-.39.74-.65,1.21l-1.09-.9Z"/><path class="cls-16" d="M103.74,119.92l9.81,55-14.41,1.71-1.79-10-11.92-.47-1.56,9.74-15.42.24,12-54.53ZM87.54,155l7.71.15-4-21Z"/><path class="cls-16" d="M155.23,120.31l-.93,15-20.57,26.17,20.64-1.25L152.5,175.7l-35.59.47.15-15.12,18.31-24.85-17.68.7.93-15.73Z"/><path class="cls-16" d="M201.82,119.14l-2.26,16.21-12.7.54-1.17,39.81-15.34.93L171.9,136l-14.41.62,1.41-15.11,14-.76Z"/><path class="cls-16" d="M243.34,119.53,241,135.27l-17.06.39-.46,5.92,14.88-.62-1.8,14.56-14.1.63-.39,5.06,17.37-.94-2,15.51-30.54,1.09,1.64-40.9-4.13.08L206,121.48Z"/><path class="cls-16" d="M288.76,131.92l-1.64,9-15,1,.23-4.36a1.92,1.92,0,0,0-2-2.18l-2.65.23c-1.48.16-2.34.7-2.42,2.73-.15,4.36-.62,17.29-.23,23.37.08,1.63.86,2.1,2.26,2l1.32-.08c1.25-.07,1.64-.31,1.87-1.94l.78-4.83,15.35-.7L285.1,165c-1.17,6.77-4.05,10.43-9.19,11.06s-11.53,1-15.82.39-9.73-3.27-10.28-10.36c-.78-9.82-.78-26.49.08-34.2s5-11.37,13.24-12.23a83.28,83.28,0,0,1,17.29.39C286.89,120.86,290.08,124.83,288.76,131.92Z"/><path class="cls-16" d="M125.63,213.56l7.24,34.75,9.43-33.81,14.64-1.09,3.74,55.85-14.17,1.17L146,239.35l-7.79,29.91-12.54.94-5.45-29.68-2.5,29.29-14.8.62,7.33-55.62Z"/><path class="cls-16" d="M200.18,213.41l9.82,55-14.41,1.72-1.79-10-11.92-.47-1.56,9.74-15.42.23,12-54.53ZM184,248.46l7.71.16-4-21Z"/><path class="cls-16" d="M239,213.1c13.16-.86,20.33,5.14,16.75,16.28l-6.47,20.25a3.92,3.92,0,0,1-3,3l-13.16,1.25L232,269l-14.18,1.48,1.72-42.22-4.6.15,1.32-13.94Zm-5.3,30.53,3.27-.31a1.06,1.06,0,0,0,1-.78l2.88-11.21c.54-2.19.08-3-1.95-2.89l-4.05.24Z"/><polygon class="cls-16" points="174.03 89.23 171.73 120.72 187.97 120.31 188.56 89.23 201.72 94.33 190.13 61.75 182.88 46.86 172.43 61.75 157.52 92.59 174.03 89.23"/></g></g></svg>