<svg xmlns="http://www.w3.org/2000/svg" xmlns:xlink="http://www.w3.org/1999/xlink" viewBox="0 0 190.35 190.34"><defs><style>.cls-1{fill:url(#radial-gradient);}.cls-2{fill:none;stroke-miterlimit:10;stroke-width:2.59px;}.cls-12,.cls-13,.cls-2{stroke:#000;}.cls-3{fill:url(#radial-gradient-2);}.cls-4{fill:url(#radial-gradient-3);}.cls-5{fill:url(#linear-gradient);}.cls-6,.cls-7{opacity:0.5;}.cls-6{fill:url(#linear-gradient-2);}.cls-7{fill:url(#linear-gradient-3);}.cls-8,.cls-9{opacity:0.4;}.cls-8{fill:url(#linear-gradient-4);}.cls-9{fill:url(#linear-gradient-5);}.cls-10{fill:url(#linear-gradient-6);}.cls-11{fill:#231f20;}.cls-12,.cls-13{fill:#8dc63f;}.cls-12,.cls-13,.cls-14{stroke-linecap:round;stroke-linejoin:round;}.cls-12{stroke-width:1.98px;}.cls-13{stroke-width:0.99px;}.cls-14{fill:#666766;stroke:#231f20;}</style><radialGradient id="radial-gradient" cx="95.54" cy="95.15" r="79.16" gradientTransform="translate(95.27 -39.68) rotate(45)" gradientUnits="userSpaceOnUse"><stop offset="0" stop-color="#fff"/><stop offset="0.05" stop-color="#e7f8fe"/><stop offset="0.16" stop-color="#a9e5fa"/><stop offset="0.32" stop-color="#49c8f5"/><stop offset="0.44" stop-color="#47c4f2"/><stop offset="0.57" stop-color="#40b7e9"/><stop offset="0.7" stop-color="#35a2db"/><stop offset="0.83" stop-color="#2585c7"/><stop offset="0.83" stop-color="#2484c6"/><stop offset="0.87" stop-color="#2482c3"/><stop offset="0.9" stop-color="#247dba"/><stop offset="0.92" stop-color="#2473aa"/><stop offset="0.94" stop-color="#246694"/><stop offset="0.96" stop-color="#245477"/><stop offset="0.98" stop-color="#233f54"/><stop offset="1" stop-color="#23262b"/><stop offset="1" stop-color="#231f20"/></radialGradient><radialGradient id="radial-gradient-2" cx="94.7" cy="12.58" r="145.08" gradientUnits="userSpaceOnUse"><stop offset="0.34" stop-color="#fff"/><stop offset="0.41" stop-color="#f0f0f0"/><stop offset="0.55" stop-color="#c9c8c8"/><stop offset="0.73" stop-color="#8a8888"/><stop offset="0.96" stop-color="#343031"/><stop offset="1" stop-color="#231f20"/></radialGradient><radialGradient id="radial-gradient-3" cx="94.7" cy="12.58" fx="165.6025100840202" fy="-130.63660496393885" r="159.8" gradientUnits="userSpaceOnUse"><stop offset="0.51" stop-color="#fff"/><stop offset="0.56" stop-color="#f1f1f1" stop-opacity="0.97"/><stop offset="0.66" stop-color="#cdcccc" stop-opacity="0.89"/><stop offset="0.79" stop-color="#929090" stop-opacity="0.75"/><stop offset="0.94" stop-color="#413e3f" stop-opacity="0.57"/><stop offset="1" stop-color="#231f20" stop-opacity="0.5"/></radialGradient><linearGradient id="linear-gradient" x1="2.02" y1="95.15" x2="189.05" y2="95.15" gradientUnits="userSpaceOnUse"><stop offset="0" stop-color="#231f20"/><stop offset="0.5" stop-color="#fff"/><stop offset="1" stop-color="#231f20"/></linearGradient><linearGradient id="linear-gradient-2" x1="31.91" y1="141.97" x2="57.22" y2="97.92" gradientUnits="userSpaceOnUse"><stop offset="0" stop-color="#fff"/><stop offset="0.05" stop-color="#e7f8fe"/><stop offset="0.16" stop-color="#a9e5fa"/><stop offset="0.32" stop-color="#49c8f5"/><stop offset="0.44" stop-color="#47c4f2"/><stop offset="0.57" stop-color="#40b7e9"/><stop offset="0.7" stop-color="#35a2db"/><stop offset="0.83" stop-color="#2585c7"/><stop offset="0.83" stop-color="#2484c6"/></linearGradient><linearGradient id="linear-gradient-3" x1="7.01" y1="-117.82" x2="31.39" y2="-160.24" gradientTransform="translate(22.18 233.37)" xlink:href="#linear-gradient-2"/><linearGradient id="linear-gradient-4" x1="558.57" y1="548.98" x2="572.47" y2="497.94" gradientTransform="matrix(0.99, 0.78, -0.62, 0.79, -108.18, -811.25)" xlink:href="#linear-gradient-2"/><linearGradient id="linear-gradient-5" x1="118.14" y1="78.99" x2="172.73" y2="43.59" xlink:href="#linear-gradient-2"/><linearGradient id="linear-gradient-6" x1="97.52" y1="177.12" x2="94.99" y2="72.31" gradientUnits="userSpaceOnUse"><stop offset="0" stop-color="#fff"/><stop offset="0.95" stop-color="#231f20"/></linearGradient></defs><g id="Layer_2" data-name="Layer 2"><g id="Layer_1-2" data-name="Layer 1"><circle class="cls-1" cx="95.54" cy="95.15" r="79.16" transform="translate(-39.3 95.43) rotate(-45)"/><circle id="Middle" class="cls-2" cx="95.45" cy="95.87" r="87.98"/><path class="cls-3" d="M95.54.35a94.81,94.81,0,1,0,94.81,94.8A94.8,94.8,0,0,0,95.54.35Zm0,179.83a85,85,0,1,1,85-85A85,85,0,0,1,95.54,180.18Z"/><path class="cls-4" d="M95.54.35a94.81,94.81,0,1,0,94.81,94.8A94.8,94.8,0,0,0,95.54.35Zm0,179.83a85,85,0,1,1,85-85A85,85,0,0,1,95.54,180.18Z"/><path class="cls-5" d="M95.54,188.67a93.52,93.52,0,1,1,93.51-93.52A93.62,93.62,0,0,1,95.54,188.67Zm0-179.83a86.32,86.32,0,1,0,86.31,86.31A86.41,86.41,0,0,0,95.54,8.84Z"/><path class="cls-6" d="M48.31,122.82c9.84,17,15.71,32,9.85,35.37s-18.6-7.68-28.43-24.72-13.06-33.59-7.19-37S38.47,105.78,48.31,122.82Z"/><ellipse class="cls-7" cx="37.15" cy="101.69" rx="11.47" ry="21.77" transform="translate(-24.52 12.71) rotate(-14.66)"/><path class="cls-8" d="M113.75,56c9.32-11.89,29-12,44-.25a42.88,42.88,0,0,1,3.48,3.05A93.63,93.63,0,0,0,142.87,40c-20-15.66-41.66-21.41-48.39-12.82-5.69,7.25,1.12,22.42,15.43,36.4A22.35,22.35,0,0,1,113.75,56Z"/><ellipse class="cls-9" cx="135.96" cy="67.43" rx="26.58" ry="25.37"/><path class="cls-10" d="M95.54,10.13a85,85,0,1,0,85,85A85,85,0,0,0,95.54,10.13Zm0,164.19A79.17,79.17,0,1,1,174.7,95.15,79.17,79.17,0,0,1,95.54,174.32Z"/><path class="cls-11" d="M52.06,61l5.67,31.8-8.33,1-1-5.76-6.9-.27-.9,5.63-8.92.13,6.94-31.53ZM42.69,81.22l4.46.09-2.3-12.16Z"/><path class="cls-11" d="M81.84,61.17l-.54,8.7L69.4,85l11.94-.72L80.26,93.2l-20.59.27.09-8.74L70.35,70.36l-10.23.41.54-9.1Z"/><path class="cls-11" d="M132.79,60.72l-1.35,9.1-9.87.23-.27,3.42,8.61-.36-1,8.43-8.15.36-.23,2.92,10-.54-1.17,9-17.66.63.94-23.65-2.38,0,.94-8.42Z"/><path class="cls-11" d="M159.05,67.89l-.94,5.18-8.7.58.14-2.52a1.11,1.11,0,0,0-1.17-1.26l-1.53.13c-.86.09-1.36.41-1.4,1.58-.09,2.52-.36,10-.14,13.51.05,1,.5,1.22,1.31,1.17l.77,0c.72,0,.94-.18,1.08-1.13l.45-2.79,8.87-.4L156.94,87c-.68,3.92-2.35,6-5.32,6.4a39.43,39.43,0,0,1-9.14.22c-2.48-.36-5.63-1.89-5.95-6a136.59,136.59,0,0,1,.05-19.77c.49-4.46,2.88-6.58,7.65-7.08a48.44,48.44,0,0,1,10,.23C158,61.49,159.82,63.79,159.05,67.89Z"/><path class="cls-11" d="M64.72,115.1l4.19,20.09,5.45-19.55,8.47-.63L85,147.31l-8.2.67-.31-18L72,147.31l-7.25.54-3.15-17.16-1.45,16.93-8.55.36,4.23-32.16Z"/><path class="cls-11" d="M107.83,115l5.68,31.8-8.34,1-1-5.76-6.89-.27-.91,5.63-8.91.13L94.36,116Zm-9.37,20.27,4.46.09-2.3-12.16Z"/><path class="cls-11" d="M130.27,114.83c7.61-.5,11.75,3,9.68,9.41L136.21,136a2.27,2.27,0,0,1-1.75,1.71l-7.62.72-.63,8.78L118,148l1-24.42-2.66.09.76-8.06Zm-3.07,17.66,1.9-.18a.61.61,0,0,0,.58-.45l1.67-6.49c.31-1.26,0-1.71-1.13-1.67l-2.34.14Z"/><line class="cls-12" x1="95.57" y1="0.99" x2="95.57" y2="16.77"/><line class="cls-12" x1="96.77" y1="189.35" x2="96.77" y2="173.57"/><line class="cls-12" x1="0.99" y1="95.77" x2="16.77" y2="95.77"/><line class="cls-12" x1="189.35" y1="94.57" x2="173.57" y2="94.57"/><line class="cls-13" x1="162.34" y1="28.15" x2="151.18" y2="39.31"/><line class="cls-13" x1="163.19" y1="161.34" x2="152.03" y2="150.18"/><line class="cls-13" x1="30" y1="162.19" x2="41.16" y2="151.03"/><line class="cls-13" x1="29.15" y1="29" x2="40.31" y2="40.16"/><polygon class="cls-14" points="109.38 60.71 108.02 70.48 100.36 70.81 99.66 94.8 90.41 95.37 91.35 70.86 82.66 71.23 83.51 62.12 91.94 61.66 92.32 61.64 93.28 46.02 85.19 47.97 92.5 30.06 97.62 21.41 101.17 30.06 106.85 48.99 100.4 46.02 100.16 61.21 109.38 60.71"/></g></g></svg>